<svg width="40" height="40" viewBox="0 0 40 40" fill="none" xmlns="http://www.w3.org/2000/svg">
<path d="M32.2833 8.15L22.5166 3.8C21.0833 3.16666 18.9166 3.16666 17.4833 3.8L7.71663 8.15C5.24997 9.25 4.8833 10.75 4.8833 11.55C4.8833 12.35 5.24997 13.85 7.71663 14.95L17.4833 19.3C18.2 19.6167 19.1 19.7833 20 19.7833C20.9 19.7833 21.8 19.6167 22.5166 19.3L32.2833 14.95C34.75 13.85 35.1166 12.35 35.1166 11.55C35.1166 10.75 34.7666 9.25 32.2833 8.15Z" fill="white"/>
<path opacity="0.4" d="M20 28.4C19.3667 28.4 18.7334 28.2667 18.15 28.0167L6.9167 23.0167C5.20003 22.25 3.8667 20.2 3.8667 18.3167C3.8667 17.6333 4.4167 17.0833 5.10003 17.0833C5.78337 17.0833 6.33337 17.6333 6.33337 18.3167C6.33337 19.2167 7.08337 20.3833 7.9167 20.75L19.15 25.75C19.6834 25.9833 20.3 25.9833 20.8334 25.75L32.0667 20.75C32.9 20.3833 33.65 19.2333 33.65 18.3167C33.65 17.6333 34.2 17.0833 34.8834 17.0833C35.5667 17.0833 36.1167 17.6333 36.1167 18.3167C36.1167 20.1833 34.7834 22.25 33.0667 23.0167L21.8334 28.0167C21.2667 28.2667 20.6334 28.4 20 28.4Z" fill="white"/>
<path opacity="0.4" d="M20 36.6667C19.3667 36.6667 18.7334 36.5333 18.15 36.2833L6.9167 31.2833C5.0667 30.4667 3.8667 28.6167 3.8667 26.5833C3.8667 25.9 4.4167 25.35 5.10003 25.35C5.78337 25.35 6.33337 25.9 6.33337 26.5833C6.33337 27.6333 6.95003 28.5833 7.9167 29.0167L19.15 34.0167C19.6834 34.25 20.3 34.25 20.8334 34.0167L32.0667 29.0167C33.0167 28.6 33.65 27.6333 33.65 26.5833C33.65 25.9 34.2 25.35 34.8834 25.35C35.5667 25.35 36.1167 25.9 36.1167 26.5833C36.1167 28.6167 34.9167 30.45 33.0667 31.2833L21.8334 36.2833C21.2667 36.5333 20.6334 36.6667 20 36.6667Z" fill="white"/>
</svg>
