<svg width="40" height="40" viewBox="0 0 40 40" fill="none" xmlns="http://www.w3.org/2000/svg">
<path d="M22.3833 25H7.33333C4.29999 25 2.36666 21.75 3.83332 19.0834L7.71666 12.0167L11.35 5.4C12.8667 2.65 16.8333 2.65 18.35 5.4L22 12.0167L23.75 15.2L25.8833 19.0834C27.35 21.75 25.4167 25 22.3833 25Z" fill="white"/>
<path opacity="0.4" d="M36.6667 25.8333C36.6667 31.8167 31.8167 36.6667 25.8333 36.6667C19.85 36.6667 15 31.8167 15 25.8333C15 25.55 15.0167 25.2833 15.0333 25H22.3833C25.4167 25 27.35 21.75 25.8833 19.0834L23.75 15.2C24.4167 15.0667 25.1167 15 25.8333 15C31.8167 15 36.6667 19.85 36.6667 25.8333Z" fill="white"/>
</svg>
